<?xml version="1.0" encoding="utf-8"?>
<!-- Generator: Adobe Illustrator 27.0.0, SVG Export Plug-In . SVG Version: 6.00 Build 0)  -->
<svg version="1.1" id="Layer_1" xmlns="http://www.w3.org/2000/svg" xmlns:xlink="http://www.w3.org/1999/xlink" x="0px" y="0px"
	 viewBox="0 0 100 50" style="enable-background:new 0 0 100 50;" xml:space="preserve">
<style type="text/css">
	.st0{fill:#0F9D58;}
	.st1{fill:#4285F4;}
	.st2{fill:#EA4335;}
	.st3{fill:#FBBC04;}
</style>
<path class="st0" d="M74.7,25c-2.3-1.3-4.7-2.6-7-4c-3-1.7-6.1-3.4-9.1-5.2c-1.7-1-2.5-2.8-2.9-4.7c-0.7-3.3,1.5-7.1,4.9-8.3
	C62.7,2,64.8,2,66.8,3.1c3.1,1.6,6,3.4,9.1,5.1c2.7,1.5,5.3,3,8,4.5c3.7,2.1,7.6,4.1,11.2,6.5c3.4,2.3,4,7.3,1.4,10.6
	c-1,1.2-2.2,1.9-3.6,2.5c-2.9,0.7-5.3-0.1-7.7-1.5c-3.1-1.9-6.3-3.6-9.5-5.4C75.3,25.2,75,25.1,74.7,25z"/>
<path class="st1" d="M25.3,25c1.1,0.6,2.1,1.3,3.2,1.9c3.7,2.1,7.3,4.2,11,6.2c1.7,0.9,3.1,2,4,3.7c1.7,3.5,0.4,8-3.2,9.9
	c-2.7,1.4-5.2,1.2-7.8-0.2c-2.8-1.6-5.7-3.1-8.5-4.7c-3.7-2.1-7.4-4.2-11.1-6.3c-2.5-1.4-5.1-2.8-7.6-4.3C1.7,29,0.8,23.8,3.5,20.4
	c0.9-1.2,2.1-1.8,3.4-2.5c0.2-0.1,0.3-0.1,0.4-0.2c0,0,0,0,0.1,0c2.5-0.6,4.7-0.1,6.9,1.1c3.4,2,6.8,3.9,10.2,5.8
	C24.7,24.8,25,24.9,25.3,25z"/>
<path class="st2" d="M25.3,24.9c-0.3-0.1-0.7-0.1-0.9-0.3c-3.4-1.9-6.8-3.8-10.2-5.8c-2.2-1.3-4.4-1.7-6.9-1.1
	C7.8,17.4,8.4,17,9,16.6c3.2-1.9,6.5-3.7,9.7-5.5c2.2-1.2,4.3-2.5,6.5-3.7c2.6-1.5,5.2-3,7.9-4.3c4.3-2.2,10.1,0.2,11,5.5
	c0.6,3.3-0.9,6.2-4.2,8.1c-3.3,1.9-6.6,3.8-9.9,5.6C28.5,23.2,26.9,24,25.3,24.9z"/>
<path class="st3" d="M74.7,25c0.3,0.1,0.6,0.2,0.9,0.3c3.2,1.8,6.4,3.5,9.5,5.4c2.4,1.4,4.8,2.2,7.6,1.5c-1,0.7-2.1,1.3-3.2,2
	c-3.2,1.9-6.5,3.7-9.7,5.5c-1.8,1-3.5,2-5.3,3c-2.5,1.4-5,2.9-7.6,4.2c-3,1.4-5.9,1.2-8.5-1c-1.8-1.5-2.7-3.4-2.7-5.7
	c0.1-2.8,1.3-5,3.8-6.5c3.9-2.2,7.7-4.4,11.6-6.6C72.2,26.4,73.4,25.8,74.7,25z"/>
<path class="st2" d="M7.2,17.7c0,0.1-0.1,0.1-0.3,0.2C7,17.9,7.1,17.8,7.2,17.7z"/>
</svg>
