<svg width="791" height="362" viewBox="0 0 791 362" fill="none" xmlns="http://www.w3.org/2000/svg">
<g filter="url(#filter0_i_192_603)">
<rect x="23.145" y="48.2102" width="729.92" height="291.679" rx="145.84" fill="#F4F4F4"/>
</g>
<path d="M69.2064 117.274C69.2064 134.131 55.5409 147.797 38.6835 147.797C21.8262 147.797 8.16064 134.131 8.16064 117.274C8.16064 100.417 21.8262 86.751 38.6835 86.751C55.5409 86.751 69.2064 100.417 69.2064 117.274Z" fill="#4FC16E" fill-opacity="0.48"/>
<path d="M55.7651 126.515C55.7651 141.362 43.7294 153.397 28.8825 153.397C14.0357 153.397 2 141.362 2 126.515C2 111.668 14.0357 99.6323 28.8825 99.6323C43.7294 99.6323 55.7651 111.668 55.7651 126.515Z" fill="#4FC16E" fill-opacity="0.48"/>
<path d="M46 140C46 152.703 35.7025 163 23 163C10.2975 163 0 152.703 0 140C0 127.297 10.2975 117 23 117C35.7025 117 46 127.297 46 140Z" fill="#4FC16E" fill-opacity="0.48"/>
<g filter="url(#filter1_d_192_603)">
<g filter="url(#filter2_i_192_603)">
<circle cx="51.2848" cy="108.033" r="33.6032" fill="#34A853"/>
</g>
<path d="M67.3567 98.5122L47.4515 118.417L42.9275 113.894L38.4036 109.37" stroke="white" stroke-width="6.11684" stroke-linecap="round" stroke-linejoin="round"/>
</g>
<g filter="url(#filter3_i_192_603)">
<circle cx="388.528" cy="48.2104" r="19.4533" fill="#F85F53"/>
</g>
<path d="M395.337 41.0775L381.395 55.019" stroke="white" stroke-width="3.59781" stroke-linecap="round" stroke-linejoin="round"/>
<path d="M381.395 41.0775L395.337 55.019" stroke="white" stroke-width="3.59781" stroke-linecap="round" stroke-linejoin="round"/>
<line x1="113.645" y1="200.81" x2="18.916" y2="200.81" stroke="#4285F4" stroke-width="0.714484"/>
<line x1="19.2733" y1="200.453" x2="19.2733" y2="351.924" stroke="#4285F4" stroke-width="0.714484"/>
<line x1="18.916" y1="351.567" x2="51.7823" y2="351.567" stroke="#4285F4" stroke-width="0.714484"/>
<circle cx="56.4264" cy="351.567" r="5.00139" stroke="#4285F4" stroke-width="0.714484"/>
<path d="M652 307L670.676 351.827L677.306 332.306L696.827 325.676L652 307Z" stroke="#4385F5" stroke-width="4" stroke-linecap="round" stroke-linejoin="round"/>
<path d="M527.25 263.229C517.031 263.229 508.089 261.039 500.424 256.659C492.882 252.28 486.981 245.953 482.723 237.68C478.587 229.408 476.518 219.614 476.518 208.3V129.647H500.972V209.76C500.972 218.762 503.223 226.062 507.724 231.658C512.347 237.133 518.856 239.87 527.25 239.87C535.645 239.87 542.093 237.133 546.594 231.658C551.217 226.062 553.529 218.762 553.529 209.76V129.647H577.983V208.3C577.983 219.127 575.914 228.678 571.778 236.951C567.641 245.223 561.741 251.671 554.076 256.294C546.412 260.918 537.47 263.229 527.25 263.229Z" fill="url(#paint0_linear_192_603)"/>
<path d="M610.809 192.058L571.391 129.647H601.867L627.233 172.349H628.692L653.876 129.647H684.534L644.934 192.058L687.819 260.309H657.161L628.692 213.227H627.233L598.764 260.309H568.106L610.809 192.058Z" fill="url(#paint1_linear_192_603)"/>
<path d="M99.8518 123.149H131.605L166.278 214.941H167.738L202.411 123.149H234.347V253.812H209.893V189.393L211.353 167.676H209.893L176.68 253.812H157.519L124.123 167.676H122.663L124.123 189.393V253.812H99.8518V123.149ZM286.674 256.731C276.82 256.731 268.729 253.872 262.403 248.154C256.077 242.315 252.914 234.711 252.914 225.343C252.914 219.139 254.556 213.664 257.841 208.919C261.126 204.174 265.627 200.525 271.345 197.97C277.063 195.415 283.389 194.137 290.324 194.137C299.935 194.137 308.147 195.537 314.96 198.335V194.32C314.96 189.21 313.013 185.074 309.12 181.911C305.349 178.747 300.239 177.166 293.791 177.166C289.411 177.166 285.153 178.2 281.017 180.268C277.002 182.215 273.656 184.83 270.98 188.115L255.651 176.071C260.152 170.231 265.809 165.73 272.622 162.567C279.435 159.404 286.857 157.822 294.886 157.822C309.12 157.822 319.948 161.107 327.369 167.676C334.79 174.246 338.501 183.857 338.501 196.51V253.812H314.96V244.322H313.5C310.702 247.972 306.991 250.953 302.368 253.264C297.867 255.576 292.635 256.731 286.674 256.731ZM292.331 238.117C299.266 238.117 304.741 235.928 308.755 231.548C312.892 227.046 314.96 221.815 314.96 215.854C308.755 212.934 302.247 211.474 295.434 211.474C283.024 211.474 276.82 216.097 276.82 225.343C276.82 229.115 278.158 232.217 280.834 234.65C283.511 236.962 287.343 238.117 292.331 238.117ZM359.77 160.742H382.216V172.056H383.676C386.231 168.041 389.941 164.696 394.808 162.019C399.674 159.221 405.27 157.822 411.597 157.822C419.991 157.822 427.595 159.951 434.408 164.209C441.343 168.346 446.756 174.185 450.649 181.728C454.543 189.271 456.489 197.787 456.489 207.277C456.489 216.888 454.543 225.465 450.649 233.008C446.756 240.429 441.343 246.269 434.408 250.527C427.595 254.663 419.991 256.731 411.597 256.731C405.27 256.731 399.613 255.393 394.625 252.717C389.759 250.04 386.109 246.694 383.676 242.68H382.216L383.676 255.819V293.229H359.77V160.742ZM407.399 234.65C411.901 234.65 416.098 233.494 419.991 231.183C423.884 228.871 426.987 225.647 429.298 221.511C431.61 217.374 432.766 212.63 432.766 207.277C432.766 201.924 431.61 197.179 429.298 193.043C426.987 188.906 423.884 185.743 419.991 183.553C416.098 181.242 411.901 180.086 407.399 180.086C403.02 180.086 398.883 181.242 394.99 183.553C391.097 185.743 387.995 188.906 385.683 193.043C383.372 197.179 382.216 201.924 382.216 207.277C382.216 212.63 383.372 217.374 385.683 221.511C387.995 225.647 391.097 228.871 394.99 231.183C398.883 233.494 403.02 234.65 407.399 234.65Z" fill="url(#paint2_linear_192_603)"/>
<circle cx="577.999" cy="95.8609" r="18.0495" fill="url(#paint3_linear_192_603)"/>
<circle cx="255.738" cy="343.393" r="18.6075" fill="#FBBC04"/>
<mask id="mask0_192_603" style="mask-type:alpha" maskUnits="userSpaceOnUse" x="244" y="333" width="25" height="25">
<rect x="244" y="333" width="24.528" height="24.528" fill="#D9D9D9"/>
</mask>
<g mask="url(#mask0_192_603)">
<path d="M256.264 354.462L254.782 353.133C253.062 351.583 251.639 350.246 250.515 349.122C249.391 347.998 248.497 346.988 247.833 346.094C247.168 345.2 246.704 344.378 246.441 343.629C246.176 342.879 246.044 342.113 246.044 341.329C246.044 339.728 246.581 338.391 247.654 337.318C248.727 336.245 250.064 335.708 251.665 335.708C252.551 335.708 253.394 335.896 254.194 336.27C254.995 336.645 255.685 337.173 256.264 337.854C256.843 337.173 257.533 336.645 258.334 336.27C259.134 335.896 259.977 335.708 260.863 335.708C262.464 335.708 263.801 336.245 264.874 337.318C265.947 338.391 266.484 339.728 266.484 341.329C266.484 342.113 266.352 342.879 266.089 343.629C265.824 344.378 265.36 345.2 264.696 346.094C264.031 346.988 263.137 347.998 262.013 349.122C260.889 350.246 259.466 351.583 257.746 353.133L256.264 354.462Z" fill="white"/>
</g>
<line x1="487.063" y1="129.406" x2="487.063" y2="6.76632" stroke="#4285F4" stroke-width="0.845794"/>
<line x1="486.64" y1="7.18916" x2="645.649" y2="7.18916" stroke="#4285F4" stroke-width="0.845794"/>
<circle cx="651.993" cy="7.18916" r="5.92056" stroke="#4285F4" stroke-width="0.845794"/>
<path d="M667.679 12.1956C666.995 12.1956 666.367 11.9878 665.797 11.5722C665.227 11.1566 664.835 10.574 664.624 9.82429L665.614 9.42093C665.752 9.94245 666.009 10.3703 666.384 10.7044C666.758 11.0384 667.199 11.2055 667.704 11.2055C668.209 11.2055 668.637 11.071 668.987 10.8021C669.338 10.5251 669.513 10.1502 669.513 9.67761C669.513 9.27018 669.362 8.93608 669.061 8.67532C668.767 8.40641 668.282 8.15787 667.606 7.92971L667.056 7.73414C666.437 7.51412 665.931 7.22484 665.54 6.8663C665.149 6.50776 664.954 6.01068 664.954 5.37508C664.954 4.9595 665.068 4.57651 665.296 4.22611C665.524 3.86757 665.842 3.58236 666.249 3.3705C666.657 3.15863 667.113 3.05269 667.618 3.05269C668.123 3.05269 668.563 3.1464 668.938 3.33383C669.313 3.52125 669.611 3.74941 669.831 4.01832C670.059 4.28723 670.218 4.55206 670.307 4.81282L669.329 5.22841C669.248 4.9269 669.061 4.65392 668.767 4.40946C668.482 4.165 668.103 4.04277 667.63 4.04277C667.182 4.04277 666.799 4.16907 666.481 4.42168C666.164 4.67429 666.005 4.99209 666.005 5.37508C666.005 5.71733 666.139 5.99846 666.408 6.21848C666.677 6.43034 667.084 6.62999 667.63 6.81741L668.205 7.01298C668.946 7.28189 669.525 7.62006 669.941 8.02749C670.356 8.42678 670.564 8.97275 670.564 9.66539C670.564 10.2277 670.417 10.7003 670.124 11.0833C669.839 11.4663 669.476 11.7474 669.036 11.9267C668.596 12.1059 668.144 12.1956 667.679 12.1956ZM671.879 5.76622H672.869V6.68295H672.917C673.097 6.36515 673.366 6.10032 673.724 5.88845C674.083 5.67659 674.462 5.57065 674.861 5.57065C675.317 5.57065 675.712 5.68066 676.047 5.90068C676.389 6.12069 676.633 6.41405 676.78 6.78074C677 6.41405 677.289 6.12069 677.648 5.90068C678.015 5.68066 678.438 5.57065 678.919 5.57065C679.636 5.57065 680.174 5.79067 680.532 6.2307C680.899 6.66258 681.082 7.25336 681.082 8.00305V12H680.056V8.16195C680.056 7.58339 679.938 7.16373 679.701 6.90297C679.465 6.64221 679.115 6.51183 678.65 6.51183C678.34 6.51183 678.059 6.60147 677.807 6.78074C677.554 6.96001 677.354 7.2004 677.208 7.5019C677.069 7.8034 677 8.12935 677 8.47975V12H675.961V8.17417C675.961 7.58746 675.843 7.16373 675.607 6.90297C675.37 6.64221 675.024 6.51183 674.568 6.51183C674.258 6.51183 673.977 6.60554 673.724 6.79296C673.472 6.97223 673.272 7.2167 673.125 7.52635C672.987 7.82785 672.917 8.1538 672.917 8.50419V12H671.879V5.76622ZM685.446 12.1956C684.835 12.1956 684.285 12.0489 683.796 11.7555C683.307 11.4622 682.924 11.0629 682.647 10.5577C682.378 10.0525 682.244 9.49427 682.244 8.88311C682.244 8.27196 682.378 7.71377 682.647 7.20855C682.924 6.70333 683.307 6.30404 683.796 6.01068C684.285 5.71733 684.835 5.57065 685.446 5.57065C686.057 5.57065 686.607 5.71733 687.096 6.01068C687.585 6.30404 687.964 6.70333 688.233 7.20855C688.51 7.71377 688.649 8.27196 688.649 8.88311C688.649 9.49427 688.51 10.0525 688.233 10.5577C687.964 11.0629 687.585 11.4622 687.096 11.7555C686.607 12.0489 686.057 12.1956 685.446 12.1956ZM685.446 11.2544C685.829 11.2544 686.184 11.1607 686.51 10.9733C686.844 10.7777 687.108 10.5006 687.304 10.1421C687.508 9.78355 687.61 9.36389 687.61 8.88311C687.61 8.40234 687.508 7.98268 687.304 7.62413C687.108 7.26559 686.844 6.99261 686.51 6.80518C686.184 6.60962 685.829 6.51183 685.446 6.51183C685.063 6.51183 684.705 6.60962 684.371 6.80518C684.036 6.99261 683.768 7.26559 683.564 7.62413C683.368 7.98268 683.27 8.40234 683.27 8.88311C683.27 9.36389 683.368 9.78355 683.564 10.1421C683.768 10.5006 684.036 10.7777 684.371 10.9733C684.705 11.1607 685.063 11.2544 685.446 11.2544ZM692.727 12.1956C692.116 12.1956 691.566 12.0489 691.077 11.7555C690.588 11.4622 690.205 11.0629 689.928 10.5577C689.659 10.0525 689.525 9.49427 689.525 8.88311C689.525 8.27196 689.659 7.71377 689.928 7.20855C690.205 6.70333 690.588 6.30404 691.077 6.01068C691.566 5.71733 692.116 5.57065 692.727 5.57065C693.339 5.57065 693.889 5.71733 694.378 6.01068C694.867 6.30404 695.245 6.70333 695.514 7.20855C695.791 7.71377 695.93 8.27196 695.93 8.88311C695.93 9.49427 695.791 10.0525 695.514 10.5577C695.245 11.0629 694.867 11.4622 694.378 11.7555C693.889 12.0489 693.339 12.1956 692.727 12.1956ZM692.727 11.2544C693.11 11.2544 693.465 11.1607 693.791 10.9733C694.125 10.7777 694.39 10.5006 694.585 10.1421C694.789 9.78355 694.891 9.36389 694.891 8.88311C694.891 8.40234 694.789 7.98268 694.585 7.62413C694.39 7.26559 694.125 6.99261 693.791 6.80518C693.465 6.60962 693.11 6.51183 692.727 6.51183C692.344 6.51183 691.986 6.60962 691.652 6.80518C691.318 6.99261 691.049 7.26559 690.845 7.62413C690.65 7.98268 690.552 8.40234 690.552 8.88311C690.552 9.36389 690.65 9.78355 690.845 10.1421C691.049 10.5006 691.318 10.7777 691.652 10.9733C691.986 11.1607 692.344 11.2544 692.727 11.2544ZM699.353 12.0978C699.1 12.0978 698.864 12.057 698.644 11.9756C698.432 11.8941 698.253 11.7841 698.106 11.6455C697.943 11.4907 697.821 11.3114 697.74 11.1077C697.658 10.904 697.617 10.6555 697.617 10.3621V6.7074H696.53V5.76622H697.617V4.0061H698.656V5.76622H700.172V6.7074H698.656V10.1054C698.656 10.4477 698.722 10.7003 698.852 10.8633C699.007 11.0425 699.231 11.1322 699.524 11.1322C699.761 11.1322 699.989 11.0629 700.209 10.9244V11.9389C700.086 11.9959 699.96 12.0367 699.83 12.0611C699.708 12.0856 699.549 12.0978 699.353 12.0978ZM701.493 3.24826H702.532V5.82734L702.483 6.68295H702.532C702.703 6.36515 702.972 6.10032 703.339 5.88845C703.714 5.67659 704.121 5.57065 704.561 5.57065C705.319 5.57065 705.898 5.79474 706.297 6.24292C706.696 6.68295 706.896 7.26966 706.896 8.00305V12H705.857V8.16195C705.857 7.59969 705.714 7.1841 705.429 6.91519C705.144 6.64628 704.773 6.51183 704.317 6.51183C703.991 6.51183 703.689 6.60962 703.412 6.80518C703.143 7.00075 702.927 7.25336 702.764 7.56302C702.61 7.87267 702.532 8.19454 702.532 8.52864V12H701.493V3.24826ZM715.31 12.1956C714.487 12.1956 713.729 11.9959 713.036 11.5966C712.343 11.1974 711.793 10.6473 711.386 9.94652C710.979 9.24573 710.775 8.4716 710.775 7.62413C710.775 6.77666 710.979 6.00253 711.386 5.30174C711.793 4.60095 712.343 4.05091 713.036 3.65163C713.729 3.25234 714.487 3.05269 715.31 3.05269C715.953 3.05269 716.556 3.16678 717.119 3.39494C717.689 3.62311 718.158 3.94498 718.524 4.36057L717.779 5.10617C717.502 4.76393 717.147 4.50317 716.715 4.3239C716.283 4.13648 715.819 4.04277 715.322 4.04277C714.702 4.04277 714.124 4.19352 713.586 4.49502C713.056 4.78837 712.629 5.20803 712.303 5.754C711.985 6.29181 711.826 6.91519 711.826 7.62413C711.826 8.33307 711.985 8.96052 712.303 9.50649C712.629 10.0443 713.061 10.464 713.598 10.7655C714.136 11.0588 714.711 11.2055 715.322 11.2055C715.908 11.2055 716.397 11.1159 716.789 10.9366C717.188 10.7492 717.53 10.5047 717.815 10.2032C718.027 9.97504 718.198 9.70206 718.329 9.38426C718.459 9.05831 718.541 8.69976 718.573 8.30863H715.334V7.343H719.539C719.579 7.57117 719.6 7.78303 719.6 7.9786C719.6 8.51642 719.514 9.04201 719.343 9.55538C719.172 10.0606 718.899 10.5047 718.524 10.8877C717.717 11.7596 716.646 12.1956 715.31 12.1956ZM720.699 5.76622H721.689V6.76852H721.738C721.86 6.42627 722.097 6.14514 722.447 5.92512C722.798 5.69696 723.164 5.58288 723.547 5.58288C723.832 5.58288 724.077 5.62362 724.281 5.70511V6.82963C724.02 6.69925 723.727 6.63406 723.401 6.63406C723.099 6.63406 722.822 6.71962 722.569 6.89075C722.317 7.06187 722.113 7.29411 721.958 7.58746C721.812 7.87267 721.738 8.18232 721.738 8.51642V12H720.699V5.76622ZM727.037 12.1956C726.58 12.1956 726.173 12.1059 725.814 11.9267C725.456 11.7474 725.179 11.5029 724.983 11.1933C724.788 10.8755 724.69 10.5169 724.69 10.1176C724.69 9.4576 724.938 8.94423 725.435 8.57753C725.932 8.20269 726.56 8.01527 727.318 8.01527C727.693 8.01527 728.039 8.05601 728.357 8.1375C728.683 8.21899 728.931 8.3127 729.102 8.41863V8.03972C729.102 7.57524 728.939 7.20447 728.613 6.92742C728.287 6.64221 727.876 6.49961 727.379 6.49961C727.028 6.49961 726.707 6.57702 726.413 6.73185C726.12 6.87852 725.888 7.08632 725.716 7.35522L724.934 6.76852C725.179 6.39367 725.513 6.10032 725.936 5.88845C726.368 5.67659 726.845 5.57065 727.367 5.57065C728.214 5.57065 728.878 5.79474 729.359 6.24292C729.848 6.68295 730.092 7.28596 730.092 8.05194V12H729.102V11.1077H729.053C728.874 11.4092 728.605 11.6659 728.247 11.8778C727.888 12.0896 727.485 12.1956 727.037 12.1956ZM727.134 11.2788C727.485 11.2788 727.811 11.1892 728.112 11.0099C728.414 10.8307 728.654 10.5903 728.833 10.2888C729.013 9.98726 729.102 9.65724 729.102 9.2987C728.907 9.16832 728.666 9.06238 728.381 8.9809C728.096 8.89941 727.794 8.85866 727.477 8.85866C726.906 8.85866 726.474 8.97682 726.181 9.21313C725.896 9.44945 725.753 9.75502 725.753 10.1299C725.753 10.4721 725.884 10.7492 726.144 10.961C726.405 11.1729 726.735 11.2788 727.134 11.2788ZM734.118 12.1956C733.564 12.1956 733.059 12.053 732.603 11.7678C732.154 11.4826 731.8 11.0914 731.539 10.5943C731.278 10.0891 731.148 9.51871 731.148 8.88311C731.148 8.25566 731.278 7.68932 731.539 7.1841C731.8 6.67888 732.154 6.28367 732.603 5.99846C733.059 5.71326 733.564 5.57065 734.118 5.57065C734.599 5.57065 735.027 5.68066 735.402 5.90068C735.776 6.11254 736.062 6.37738 736.257 6.69518H736.306L736.257 5.82734V3.24826H737.296V12H736.306V11.0833H736.257C736.062 11.3929 735.776 11.6578 735.402 11.8778C735.027 12.0896 734.599 12.1956 734.118 12.1956ZM734.24 11.2544C734.607 11.2544 734.945 11.1566 735.255 10.961C735.573 10.7655 735.825 10.4884 736.013 10.1299C736.208 9.77132 736.306 9.35574 736.306 8.88311C736.306 8.41048 736.208 7.9949 736.013 7.63636C735.825 7.27781 735.573 7.00075 735.255 6.80518C734.945 6.60962 734.607 6.51183 734.24 6.51183C733.882 6.51183 733.544 6.60962 733.226 6.80518C732.908 7.00075 732.651 7.28189 732.456 7.64858C732.268 8.00712 732.175 8.41863 732.175 8.88311C732.175 9.34759 732.268 9.76317 732.456 10.1299C732.651 10.4884 732.908 10.7655 733.226 10.961C733.544 11.1566 733.882 11.2544 734.24 11.2544ZM739.442 4.61725C739.238 4.61725 739.063 4.54391 738.917 4.39724C738.77 4.25056 738.697 4.07536 738.697 3.87164C738.697 3.66792 738.77 3.4968 738.917 3.35827C739.063 3.2116 739.238 3.13826 739.442 3.13826C739.646 3.13826 739.821 3.2116 739.968 3.35827C740.114 3.4968 740.188 3.66792 740.188 3.87164C740.188 4.07536 740.114 4.25056 739.968 4.39724C739.829 4.54391 739.654 4.61725 739.442 4.61725ZM738.929 5.76622H739.956V12H738.929V5.76622ZM744.303 12.1956C743.708 12.1956 743.175 12.053 742.702 11.7678C742.229 11.4826 741.859 11.0914 741.59 10.5943C741.329 10.0891 741.199 9.52279 741.199 8.89533C741.199 8.29233 741.321 7.73821 741.565 7.23299C741.818 6.72777 742.172 6.32441 742.629 6.02291C743.085 5.7214 743.615 5.57065 744.218 5.57065C744.829 5.57065 745.359 5.70918 745.807 5.98624C746.255 6.25515 746.597 6.62999 746.833 7.11076C747.078 7.59154 747.2 8.14158 747.2 8.76088C747.2 8.88311 747.188 8.98904 747.164 9.07868H742.238C742.262 9.55131 742.376 9.95059 742.58 10.2765C742.784 10.6025 743.04 10.847 743.35 11.0099C743.668 11.1729 743.998 11.2544 744.34 11.2544C745.139 11.2544 745.754 10.8795 746.186 10.1299L747.066 10.5577C746.797 11.0629 746.43 11.4622 745.966 11.7555C745.509 12.0489 744.955 12.1956 744.303 12.1956ZM746.1 8.22306C746.084 7.9623 746.01 7.70155 745.88 7.44079C745.75 7.18003 745.542 6.96001 745.257 6.78074C744.98 6.60147 744.629 6.51183 744.206 6.51183C743.717 6.51183 743.301 6.67073 742.959 6.98853C742.625 7.29818 742.405 7.70969 742.299 8.22306H746.1ZM748.416 5.76622H749.406V6.68295H749.455C749.626 6.3733 749.899 6.11254 750.274 5.90068C750.649 5.68066 751.048 5.57065 751.472 5.57065C752.222 5.57065 752.792 5.79067 753.183 6.2307C753.582 6.66258 753.782 7.25336 753.782 8.00305V12H752.743V8.16195C752.743 7.58339 752.605 7.16373 752.327 6.90297C752.05 6.64221 751.671 6.51183 751.191 6.51183C750.857 6.51183 750.555 6.60554 750.286 6.79296C750.025 6.98038 749.822 7.22892 749.675 7.53857C749.528 7.84007 749.455 8.15787 749.455 8.49197V12H748.416V5.76622ZM757.353 12.0978C757.1 12.0978 756.864 12.057 756.644 11.9756C756.432 11.8941 756.253 11.7841 756.106 11.6455C755.943 11.4907 755.821 11.3114 755.74 11.1077C755.658 10.904 755.617 10.6555 755.617 10.3621V6.7074H754.53V5.76622H755.617V4.0061H756.656V5.76622H758.172V6.7074H756.656V10.1054C756.656 10.4477 756.722 10.7003 756.852 10.8633C757.007 11.0425 757.231 11.1322 757.524 11.1322C757.761 11.1322 757.989 11.0629 758.209 10.9244V11.9389C758.086 11.9959 757.96 12.0367 757.83 12.0611C757.708 12.0856 757.549 12.0978 757.353 12.0978Z" fill="#1E1E1E"/>
<path d="M68.1626 353.72H66.647L66.7936 352.865H68.2971L68.5538 351.141H67.0259L67.1603 350.286H68.676L69.0305 347.878H69.935L69.5805 350.286H71.3162L71.6707 347.878H72.5752L72.2207 350.286H73.7364L73.6019 351.141H72.0985L71.8418 352.865H73.3697L73.2352 353.72H71.7073L71.3284 356.238H70.4239L70.8028 353.72H69.0671L68.6882 356.238H67.7837L68.1626 353.72ZM70.9373 352.865L71.194 351.141H69.4583L69.2016 352.865H70.9373ZM75.0885 347.487H80.1489V348.477H76.1153V351.373H79.7578V352.351H76.1153V355.248H80.1489V356.238H75.0885V347.487ZM84.3387 347.487H85.5122L88.8368 356.238H87.7001L86.82 353.83H83.0431L82.163 356.238H81.0263L84.3387 347.487ZM86.4656 352.852L85.3044 349.699L84.9499 348.758H84.901L84.5588 349.699L83.3976 352.852H86.4656ZM93.5787 354.441H89.5696V353.659L93.481 347.878H94.6055V353.464H95.6811V354.441H94.6055V356.238H93.5787V354.441ZM93.5787 353.464V349.393H93.5298L90.7552 353.464H93.5787ZM99.4433 356.434C99.0929 356.434 98.7344 356.361 98.3677 356.214C98.001 356.067 97.6669 355.839 97.3654 355.529C97.0721 355.212 96.8602 354.816 96.7298 354.344L97.671 353.953C97.8014 354.425 98.0214 354.792 98.331 355.053C98.6488 355.313 99.0196 355.444 99.4433 355.444C99.753 355.444 100.042 355.379 100.311 355.248C100.58 355.11 100.792 354.922 100.947 354.686C101.11 354.441 101.191 354.173 101.191 353.879C101.191 353.594 101.11 353.333 100.947 353.097C100.792 352.861 100.576 352.677 100.299 352.547C100.03 352.408 99.7326 352.339 99.4067 352.339H98.6855V351.373H99.3333C99.7815 351.373 100.156 351.247 100.458 350.995C100.759 350.734 100.91 350.392 100.91 349.968C100.91 349.577 100.763 349.263 100.47 349.027C100.177 348.79 99.8141 348.672 99.3822 348.672C98.9585 348.672 98.6244 348.782 98.3799 349.002C98.1436 349.222 97.9725 349.491 97.8666 349.809L96.9132 349.406C97.0598 348.966 97.341 348.57 97.7566 348.22C98.1803 347.861 98.7222 347.682 99.3822 347.682C99.8712 347.682 100.311 347.78 100.702 347.975C101.093 348.171 101.399 348.444 101.619 348.794C101.847 349.145 101.961 349.536 101.961 349.968C101.961 350.4 101.851 350.766 101.631 351.068C101.411 351.369 101.138 351.606 100.812 351.777V351.826C101.228 351.997 101.57 352.262 101.839 352.62C102.108 352.971 102.242 353.386 102.242 353.867C102.242 354.356 102.116 354.796 101.864 355.187C101.619 355.578 101.281 355.884 100.849 356.104C100.425 356.324 99.9567 356.434 99.4433 356.434ZM105.985 356.434C105.634 356.434 105.276 356.361 104.909 356.214C104.542 356.067 104.208 355.839 103.907 355.529C103.613 355.212 103.401 354.816 103.271 354.344L104.212 353.953C104.343 354.425 104.563 354.792 104.872 355.053C105.19 355.313 105.561 355.444 105.985 355.444C106.294 355.444 106.584 355.379 106.852 355.248C107.121 355.11 107.333 354.922 107.488 354.686C107.651 354.441 107.733 354.173 107.733 353.879C107.733 353.594 107.651 353.333 107.488 353.097C107.333 352.861 107.117 352.677 106.84 352.547C106.571 352.408 106.274 352.339 105.948 352.339H105.227V351.373H105.875C106.323 351.373 106.698 351.247 106.999 350.995C107.301 350.734 107.451 350.392 107.451 349.968C107.451 349.577 107.305 349.263 107.011 349.027C106.718 348.79 106.355 348.672 105.923 348.672C105.5 348.672 105.166 348.782 104.921 349.002C104.685 349.222 104.514 349.491 104.408 349.809L103.454 349.406C103.601 348.966 103.882 348.57 104.298 348.22C104.722 347.861 105.263 347.682 105.923 347.682C106.412 347.682 106.852 347.78 107.244 347.975C107.635 348.171 107.94 348.444 108.16 348.794C108.388 349.145 108.503 349.536 108.503 349.968C108.503 350.4 108.393 350.766 108.173 351.068C107.953 351.369 107.68 351.606 107.354 351.777V351.826C107.769 351.997 108.111 352.262 108.38 352.62C108.649 352.971 108.784 353.386 108.784 353.867C108.784 354.356 108.657 354.796 108.405 355.187C108.16 355.578 107.822 355.884 107.39 356.104C106.967 356.324 106.498 356.434 105.985 356.434ZM112.685 356.434C112.294 356.434 111.907 356.352 111.524 356.189C111.141 356.018 110.802 355.766 110.509 355.432C110.216 355.089 110.008 354.67 109.886 354.173L110.802 353.806C110.925 354.303 111.149 354.702 111.475 355.004C111.809 355.297 112.204 355.444 112.66 355.444C113.206 355.444 113.65 355.277 113.993 354.943C114.335 354.609 114.506 354.173 114.506 353.635C114.506 353.105 114.335 352.669 113.993 352.327C113.659 351.976 113.223 351.801 112.685 351.801C112.391 351.801 112.114 351.871 111.854 352.009C111.593 352.139 111.381 352.323 111.218 352.559L110.155 352.095L110.705 347.878H115.032V348.868H111.56L111.23 351.398L111.279 351.41C111.711 351.043 112.241 350.86 112.868 350.86C113.349 350.86 113.793 350.978 114.2 351.215C114.616 351.451 114.946 351.781 115.191 352.205C115.435 352.628 115.557 353.101 115.557 353.623C115.557 354.144 115.431 354.621 115.178 355.053C114.934 355.476 114.592 355.815 114.152 356.067C113.712 356.312 113.223 356.434 112.685 356.434Z" fill="#1E1E1E"/>
<g filter="url(#filter4_d_192_603)">
<mask id="mask1_192_603" style="mask-type:alpha" maskUnits="userSpaceOnUse" x="704" y="93" width="87" height="87">
<rect x="704.855" y="93.8833" width="85.4252" height="85.4252" fill="#D9D9D9"/>
</mask>
<g mask="url(#mask1_192_603)">
<path d="M774.441 167.118L752.017 144.783C750.237 146.266 748.191 147.422 745.877 148.253C743.563 149.083 741.19 149.499 738.758 149.499C732.648 149.499 727.487 147.393 723.275 143.181C719.063 138.969 716.957 133.808 716.957 127.697C716.957 121.647 719.063 116.5 723.275 112.257C727.487 108.016 732.648 105.896 738.758 105.896C744.809 105.896 749.941 108.002 754.153 112.214C758.364 116.426 760.47 121.587 760.47 127.697C760.47 130.248 760.055 132.681 759.225 134.994C758.394 137.308 757.267 139.325 755.843 141.045L778.178 163.38L774.441 167.118ZM738.758 144.16C743.326 144.16 747.197 142.558 750.372 139.354C753.545 136.151 755.131 132.265 755.131 127.697C755.131 123.13 753.545 119.244 750.372 116.04C747.197 112.837 743.326 111.235 738.758 111.235C734.131 111.235 730.231 112.837 727.058 116.04C723.884 119.244 722.296 123.13 722.296 127.697C722.296 132.265 723.884 136.151 727.058 139.354C730.231 142.558 734.131 144.16 738.758 144.16Z" fill="#FBBC04"/>
</g>
</g>
<rect x="93.5" y="108.5" width="369" height="190" stroke="#4285F4"/>
<rect x="460.5" y="106.5" width="4" height="4" fill="white" stroke="#4285F4"/>
<rect x="460.5" y="296.5" width="4" height="4" fill="white" stroke="#4285F4"/>
<rect x="91.5" y="296.5" width="4" height="4" fill="white" stroke="#4285F4"/>
<rect x="91.5" y="106.5" width="4" height="4" fill="white" stroke="#4285F4"/>
<rect x="315" y="362" width="10" height="301" rx="5" transform="rotate(-90 315 362)" fill="url(#paint4_linear_192_603)"/>
<rect x="572.5" y="85.5" width="116" height="215" stroke="#4285F4" stroke-dasharray="2 2"/>
<defs>
<filter id="filter0_i_192_603" x="23.145" y="48.2102" width="729.92" height="291.679" filterUnits="userSpaceOnUse" color-interpolation-filters="sRGB">
<feFlood flood-opacity="0" result="BackgroundImageFix"/>
<feBlend mode="normal" in="SourceGraphic" in2="BackgroundImageFix" result="shape"/>
<feColorMatrix in="SourceAlpha" type="matrix" values="0 0 0 0 0 0 0 0 0 0 0 0 0 0 0 0 0 0 127 0" result="hardAlpha"/>
<feOffset/>
<feGaussianBlur stdDeviation="11.5517"/>
<feComposite in2="hardAlpha" operator="arithmetic" k2="-1" k3="1"/>
<feColorMatrix type="matrix" values="0 0 0 0 0 0 0 0 0 0 0 0 0 0 0 0 0 0 0.25 0"/>
<feBlend mode="normal" in2="shape" result="effect1_innerShadow_192_603"/>
</filter>
<filter id="filter1_d_192_603" x="15.4414" y="74.4299" width="71.6868" height="71.6867" filterUnits="userSpaceOnUse" color-interpolation-filters="sRGB">
<feFlood flood-opacity="0" result="BackgroundImageFix"/>
<feColorMatrix in="SourceAlpha" type="matrix" values="0 0 0 0 0 0 0 0 0 0 0 0 0 0 0 0 0 0 127 0" result="hardAlpha"/>
<feOffset dy="2.24021"/>
<feGaussianBlur stdDeviation="1.12011"/>
<feComposite in2="hardAlpha" operator="out"/>
<feColorMatrix type="matrix" values="0 0 0 0 0 0 0 0 0 0 0 0 0 0 0 0 0 0 0.25 0"/>
<feBlend mode="normal" in2="BackgroundImageFix" result="effect1_dropShadow_192_603"/>
<feBlend mode="normal" in="SourceGraphic" in2="effect1_dropShadow_192_603" result="shape"/>
</filter>
<filter id="filter2_i_192_603" x="17.6816" y="74.4299" width="67.2064" height="67.2063" filterUnits="userSpaceOnUse" color-interpolation-filters="sRGB">
<feFlood flood-opacity="0" result="BackgroundImageFix"/>
<feBlend mode="normal" in="SourceGraphic" in2="BackgroundImageFix" result="shape"/>
<feColorMatrix in="SourceAlpha" type="matrix" values="0 0 0 0 0 0 0 0 0 0 0 0 0 0 0 0 0 0 127 0" result="hardAlpha"/>
<feOffset/>
<feGaussianBlur stdDeviation="5.88056"/>
<feComposite in2="hardAlpha" operator="arithmetic" k2="-1" k3="1"/>
<feColorMatrix type="matrix" values="0 0 0 0 0 0 0 0 0 0 0 0 0 0 0 0 0 0 0.25 0"/>
<feBlend mode="normal" in2="shape" result="effect1_innerShadow_192_603"/>
</filter>
<filter id="filter3_i_192_603" x="369.075" y="28.7571" width="38.9065" height="38.9065" filterUnits="userSpaceOnUse" color-interpolation-filters="sRGB">
<feFlood flood-opacity="0" result="BackgroundImageFix"/>
<feBlend mode="normal" in="SourceGraphic" in2="BackgroundImageFix" result="shape"/>
<feColorMatrix in="SourceAlpha" type="matrix" values="0 0 0 0 0 0 0 0 0 0 0 0 0 0 0 0 0 0 127 0" result="hardAlpha"/>
<feOffset/>
<feGaussianBlur stdDeviation="3.40432"/>
<feComposite in2="hardAlpha" operator="arithmetic" k2="-1" k3="1"/>
<feColorMatrix type="matrix" values="0 0 0 0 0 0 0 0 0 0 0 0 0 0 0 0 0 0 0.25 0"/>
<feBlend mode="normal" in2="shape" result="effect1_innerShadow_192_603"/>
</filter>
<filter id="filter4_d_192_603" x="714.328" y="105.896" width="66.4783" height="66.4784" filterUnits="userSpaceOnUse" color-interpolation-filters="sRGB">
<feFlood flood-opacity="0" result="BackgroundImageFix"/>
<feColorMatrix in="SourceAlpha" type="matrix" values="0 0 0 0 0 0 0 0 0 0 0 0 0 0 0 0 0 0 127 0" result="hardAlpha"/>
<feOffset dy="2.62847"/>
<feGaussianBlur stdDeviation="1.31423"/>
<feComposite in2="hardAlpha" operator="out"/>
<feColorMatrix type="matrix" values="0 0 0 0 0 0 0 0 0 0 0 0 0 0 0 0 0 0 0.25 0"/>
<feBlend mode="normal" in2="BackgroundImageFix" result="effect1_dropShadow_192_603"/>
<feBlend mode="normal" in="SourceGraphic" in2="effect1_dropShadow_192_603" result="shape"/>
</filter>
<linearGradient id="paint0_linear_192_603" x1="572.041" y1="70.0828" x2="427.491" y2="138.671" gradientUnits="userSpaceOnUse">
<stop stop-color="#D9D9D9"/>
<stop offset="0.424507" stop-color="#95B3E5"/>
<stop offset="1" stop-color="#4285F4"/>
</linearGradient>
<linearGradient id="paint1_linear_192_603" x1="573.945" y1="106.196" x2="587.349" y2="282.385" gradientUnits="userSpaceOnUse">
<stop stop-color="#D9D9D9"/>
<stop offset="0.424507" stop-color="#95B3E5"/>
<stop offset="1" stop-color="#4285F4"/>
</linearGradient>
<linearGradient id="paint2_linear_192_603" x1="408.053" y1="234.879" x2="253.465" y2="272.815" gradientUnits="userSpaceOnUse">
<stop offset="0.257726" stop-color="#FBBC04"/>
<stop offset="1" stop-color="#EA4335"/>
</linearGradient>
<linearGradient id="paint3_linear_192_603" x1="559.95" y1="121.491" x2="603.629" y2="85.3922" gradientUnits="userSpaceOnUse">
<stop offset="0.385033" stop-color="#34A853"/>
<stop offset="0.671875" stop-color="#7EC591"/>
<stop offset="1" stop-color="#F4F4F4"/>
</linearGradient>
<linearGradient id="paint4_linear_192_603" x1="320" y1="362" x2="320" y2="663" gradientUnits="userSpaceOnUse">
<stop stop-color="#34A853"/>
<stop offset="0.747504" stop-color="#4285F4"/>
</linearGradient>
</defs>
</svg>
